{
  "source": "C:\\Users\\Peter\\Desktop\\stuff\\MIUN\\quantitative_research\\video_compression\\videos\\BVI-HD\\RockWave_1920x1080_30fps.mp4",
  "output": "C:\\Users\\Peter\\Desktop\\stuff\\MIUN\\quantitative_research\\video_compression\\compressed_videos\\BVI-HD\\av1\\2\\RockWave_1920x1080_30fps_av1.mkv",
  "codec": "av1",
  "ok": "Input #0, mov,mp4,m4a,3gp,3g2,mj2, from 'C:\\Users\\Peter\\Desktop\\stuff\\MIUN\\quantitative_research\\video_compression\\videos\\BVI-HD\\RockWave_1920x1080_30fps.mp4':\n  Metadata:\n    major_brand     : isom\n    minor_version   : 512\n    compatible_brands: isomiso2avc1mp41\n    encoder         : Lavf54.28.101\n  Duration: 00:00:05.00, start: 0.000000, bitrate: 303557 kb/s\n  Stream #0:0[0x1](und): Video: h264 (High 4:4:4 Predictive) (avc1 / 0x31637661), yuv420p(progressive), 1920x1080, 303553 kb/s, 30 fps, 30 tbr, 30 tbn (default)\n    Metadata:\n      handler_name    : VideoHandler\n      vendor_id       : [0][0][0][0]\n[out#0/matroska @ 0000027ab64b0c00] Codec AVOption b:a (set bitrate (in bits/s)) has not been used for any stream. The most likely reason is either wrong type (e.g. a video option with no video streams) or that it is a private option of some decoder which was not actually used for any stream.\nStream mapping:\n  Stream #0:0 -> #0:0 (h264 (native) -> av1 (libsvtav1))\nPress [q] to stop, [?] for help\nSvt[info]: -------------------------------------------\nSvt[info]: SVT [version]:\tSVT-AV1 Encoder Lib v3.1.0-19-g6ecfe8ec\nSvt[info]: SVT [build]  :\tGCC 15.2.0\t 64 bit\nSvt[info]: LIB Build date: Aug 17 2025 11:37:13\nSvt[info]: -------------------------------------------\nSvt[info]: Level of Parallelism: 5\nSvt[info]: Number of PPCS 93\nSvt[info]: [asm level on system : up to avx2]\nSvt[info]: [asm level selected : up to avx2]\nSvt[info]: -------------------------------------------\nSvt[info]: SVT [config]: main profile\ttier (auto)\tlevel (auto)\nSvt[info]: SVT [config]: width / height / fps numerator / fps denominator \t\t: 1920 / 1080 / 30 / 1\nSvt[info]: SVT [config]: bit-depth / color format \t\t\t\t\t: 8 / YUV420\nSvt[info]: SVT [config]: preset / tune / pred struct \t\t\t\t\t: 4 / PSNR / random access\nSvt[info]: SVT [config]: gop size / mini-gop size / key-frame type \t\t\t: 161 / 16 / key frame\nSvt[info]: SVT [config]: BRC mode / target bitrate (kbps)\t\t\t\t: VBR / 2000 \nSvt[info]: SVT [config]: AQ mode / Variance Boost \t\t\t\t\t: 2 / 0\nSvt[info]: SVT [config]: sharpness / luminance-based QP bias \t\t\t\t: 0 / 0\nSvt[info]: SVT [config]: QP scale compress strength \t\t\t\t\t: 0\nSvt[info]: -------------------------------------------\nOutput #0, matroska, to 'C:\\Users\\Peter\\Desktop\\stuff\\MIUN\\quantitative_research\\video_compression\\compressed_videos\\BVI-HD\\av1\\2\\RockWave_1920x1080_30fps_av1.mkv':\n  Metadata:\n    major_brand     : isom\n    minor_version   : 512\n    compatible_brands: isomiso2avc1mp41\n    encoder         : Lavf62.3.100\n  Stream #0:0(und): Video: av1 (AV01 / 0x31305641), yuv420p(tv, progressive), 1920x1080, q=2-31, 2000 kb/s, 30 fps, 1k tbn (default)\n    Metadata:\n      encoder         : Lavc62.11.100 libsvtav1\n      handler_name    : VideoHandler\n      vendor_id       : [0][0][0][0]\n    Side data:\n      cpb: bitrate max/min/avg: 0/0/2000000 buffer size: 2000000 vbv_delay: N/A\nframe=    0 fps=0.0 q=0.0 size=       0KiB time=N/A bitrate=N/A speed=N/A elapsed=0:00:01.03    \nframe=    0 fps=0.0 q=0.0 size=       0KiB time=N/A bitrate=N/A speed=N/A elapsed=0:00:01.56    \nframe=    0 fps=0.0 q=0.0 size=       0KiB time=N/A bitrate=N/A speed=N/A elapsed=0:00:02.07    \nframe=    0 fps=0.0 q=0.0 size=       0KiB time=N/A bitrate=N/A speed=N/A elapsed=0:00:02.59    \nframe=    0 fps=0.0 q=0.0 size=       0KiB time=N/A bitrate=N/A speed=N/A elapsed=0:00:03.11    \nframe=    0 fps=0.0 q=0.0 size=       0KiB time=N/A bitrate=N/A speed=N/A elapsed=0:00:03.63    \nframe=    0 fps=0.0 q=0.0 size=       0KiB time=N/A bitrate=N/A speed=N/A elapsed=0:00:04.15    \nframe=    0 fps=0.0 q=0.0 size=       0KiB time=N/A bitrate=N/A speed=N/A elapsed=0:00:04.68    \nframe=    1 fps=0.2 q=53.0 size=       1KiB time=00:00:00.00 bitrate=N/A speed=   0x elapsed=0:00:05.18    \nframe=    1 fps=0.2 q=53.0 size=       1KiB time=00:00:00.00 bitrate=N/A speed=   0x elapsed=0:00:05.70    \nframe=    2 fps=0.3 q=61.0 size=       1KiB time=00:00:00.03 bitrate= 171.1kbits/s speed=0.00536x elapsed=0:00:06.21    \nframe=    5 fps=0.7 q=61.0 size=       1KiB time=00:00:00.13 bitrate=  42.8kbits/s speed=0.0198x elapsed=0:00:06.73    \nframe=    7 fps=1.0 q=61.0 size=       1KiB time=00:00:00.20 bitrate=  28.5kbits/s speed=0.0276x elapsed=0:00:07.24    \nframe=    9 fps=1.2 q=60.0 size=       1KiB time=00:00:00.26 bitrate=  21.4kbits/s speed=0.0343x elapsed=0:00:07.76    \nframe=   12 fps=1.4 q=60.0 size=       1KiB time=00:00:00.36 bitrate=  15.6kbits/s speed=0.0443x elapsed=0:00:08.28    \nframe=   16 fps=1.8 q=60.0 size=       1KiB time=00:00:00.50 bitrate=  11.4kbits/s speed=0.0568x elapsed=0:00:08.80    \nframe=   19 fps=2.0 q=59.0 size=       1KiB time=00:00:00.60 bitrate=   9.5kbits/s speed=0.0644x elapsed=0:00:09.32    \nframe=   21 fps=2.1 q=58.0 size=       1KiB time=00:00:00.66 bitrate=   8.6kbits/s speed=0.0679x elapsed=0:00:09.82    \nframe=   23 fps=2.2 q=59.0 size=       1KiB time=00:00:00.73 bitrate=   7.8kbits/s speed=0.0709x elapsed=0:00:10.34    \nframe=   26 fps=2.4 q=59.0 size=       1KiB time=00:00:00.83 bitrate=   6.8kbits/s speed=0.0767x elapsed=0:00:10.86    \nframe=   29 fps=2.5 q=58.0 size=       1KiB time=00:00:00.93 bitrate=   6.1kbits/s speed=0.082x elapsed=0:00:11.37    \nframe=   33 fps=2.8 q=56.0 size=       1KiB time=00:00:01.06 bitrate=   5.3kbits/s speed=0.0897x elapsed=0:00:11.89    \nframe=   35 fps=2.8 q=59.0 size=       1KiB time=00:00:01.13 bitrate=   5.0kbits/s speed=0.0913x elapsed=0:00:12.41    \nframe=   38 fps=2.9 q=62.0 size=       1KiB time=00:00:01.23 bitrate=   4.6kbits/s speed=0.0955x elapsed=0:00:12.92    \nframe=   41 fps=3.0 q=56.0 size=       1KiB time=00:00:01.33 bitrate=   4.3kbits/s speed=0.0992x elapsed=0:00:13.44    \nframe=   44 fps=3.2 q=61.0 size=       1KiB time=00:00:01.43 bitrate=   4.0kbits/s speed=0.103x elapsed=0:00:13.96    \nframe=   49 fps=3.4 q=54.0 size=       1KiB time=00:00:01.60 bitrate=   3.6kbits/s speed=0.111x elapsed=0:00:14.47    \nframe=   55 fps=3.7 q=61.0 size=       1KiB time=00:00:01.80 bitrate=   3.2kbits/s speed=0.12x elapsed=0:00:14.99    \nframe=   57 fps=3.7 q=59.0 size=       1KiB time=00:00:01.86 bitrate=   3.1kbits/s speed=0.12x elapsed=0:00:15.50    \nframe=   61 fps=3.8 q=60.0 size=       1KiB time=00:00:02.00 bitrate=   2.9kbits/s speed=0.125x elapsed=0:00:16.02    \nframe=   65 fps=3.9 q=54.0 size=       1KiB time=00:00:02.13 bitrate=   2.7kbits/s speed=0.129x elapsed=0:00:16.55    \nframe=   69 fps=4.0 q=61.0 size=       1KiB time=00:00:02.26 bitrate=   2.5kbits/s speed=0.133x elapsed=0:00:17.07    \nframe=   73 fps=4.2 q=60.0 size=       1KiB time=00:00:02.40 bitrate=   2.4kbits/s speed=0.137x elapsed=0:00:17.58    \nframe=   77 fps=4.3 q=60.0 size=       1KiB time=00:00:02.53 bitrate=   2.3kbits/s speed=0.14x elapsed=0:00:18.08    \nframe=   81 fps=4.4 q=56.0 size=       1KiB time=00:00:02.66 bitrate=   2.1kbits/s speed=0.143x elapsed=0:00:18.60    \nframe=   89 fps=4.7 q=60.0 size=       1KiB time=00:00:02.93 bitrate=   1.9kbits/s speed=0.153x elapsed=0:00:19.12    \nframe=   89 fps=4.5 q=60.0 size=       1KiB time=00:00:02.93 bitrate=   1.9kbits/s speed=0.149x elapsed=0:00:19.65    \nframe=   93 fps=4.6 q=60.0 size=       1KiB time=00:00:03.06 bitrate=   1.9kbits/s speed=0.152x elapsed=0:00:20.15    \nframe=   99 fps=4.8 q=62.0 size=       1KiB time=00:00:03.26 bitrate=   1.7kbits/s speed=0.158x elapsed=0:00:20.68    \nframe=  105 fps=5.0 q=60.0 size=       1KiB time=00:00:03.46 bitrate=   1.6kbits/s speed=0.164x elapsed=0:00:21.19    \nframe=  105 fps=4.8 q=60.0 size=       1KiB time=00:00:03.46 bitrate=   1.6kbits/s speed=0.16x elapsed=0:00:21.71    \nframe=  109 fps=4.9 q=60.0 size=       1KiB time=00:00:03.60 bitrate=   1.6kbits/s speed=0.162x elapsed=0:00:22.22    \nframe=  113 fps=5.0 q=57.0 size=       1KiB time=00:00:03.73 bitrate=   1.5kbits/s speed=0.164x elapsed=0:00:22.73    \nframe=  119 fps=5.1 q=61.0 size=       1KiB time=00:00:03.93 bitrate=   1.5kbits/s speed=0.169x elapsed=0:00:23.25    \nframe=  121 fps=5.1 q=60.0 size=       1KiB time=00:00:04.00 bitrate=   1.4kbits/s speed=0.168x elapsed=0:00:23.76    \nframe=  129 fps=5.3 q=57.0 size=       1KiB time=00:00:04.26 bitrate=   1.3kbits/s speed=0.176x elapsed=0:00:24.28    \nframe=  133 fps=5.4 q=63.0 size=       1KiB time=00:00:04.40 bitrate=   1.3kbits/s speed=0.177x elapsed=0:00:24.80    \nframe=  137 fps=5.4 q=61.0 size=       1KiB time=00:00:04.53 bitrate=   1.3kbits/s speed=0.179x elapsed=0:00:25.31    \nframe=  141 fps=5.5 q=61.0 size=       1KiB time=00:00:04.66 bitrate=   1.2kbits/s speed=0.181x elapsed=0:00:25.82    \n[out#0/matroska @ 0000027ab64b0c00] video:990KiB audio:0KiB subtitle:0KiB other streams:0KiB global headers:0KiB muxing overhead: 0.143372%\nframe=  150 fps=5.8 q=62.0 Lsize=     992KiB time=00:00:04.96 bitrate=1635.9kbits/s speed=0.191x elapsed=0:00:25.98    \n",
  "seconds": 26.431917190551758,
  "probe_out": {}
}